# xmcd
#
# Track frame offsets:
#       150
#       18890
#       31853
#       64631
#
# Disc length: 1565 seconds
#
# Revision: 0
# Processed by: cddbd v1.5PL3 Copyright (c) Steve Scherf et al.
# Submitted via: CD-DA_X-Tractor v0.21
#
DISCID=23061b04
DTITLE=Shania Twain - When you kiss me - Up!
DYEAR=1900
DGENRE=
TTITLE0=When you kiss me
TTITLE1=up!
TTITLE2=I'm gonna get you good (Live from Chicago)
TTITLE3=Data Track
EXTD=
EXTT0=
EXTT1=
EXTT2=
EXTT3=
PLAYORDER=
